<?xml version="1.0" encoding="UTF-8" standalone="no"?>
<!-- Generated by Microsoft Visio 11.0, SVG Export, v1.0 Open_Book.svg Page-1 -->

<svg
   xmlns:v="http://schemas.microsoft.com/visio/2003/SVGExtensions/"
   xmlns:dc="http://purl.org/dc/elements/1.1/"
   xmlns:cc="http://creativecommons.org/ns#"
   xmlns:rdf="http://www.w3.org/1999/02/22-rdf-syntax-ns#"
   xmlns:svg="http://www.w3.org/2000/svg"
   xmlns="http://www.w3.org/2000/svg"
   xmlns:sodipodi="http://sodipodi.sourceforge.net/DTD/sodipodi-0.dtd"
   xmlns:inkscape="http://www.inkscape.org/namespaces/inkscape"
   width="2.78982in"
   height="1.95749in"
   viewBox="0 0 200.867 140.939"
   xml:space="preserve"
   color-interpolation-filters="sRGB"
   class="st4"
   id="svg2"
   version="1.1"
   inkscape:version="0.48.2 r9819"
   sodipodi:docname="Open_Book.svg"><metadata
   id="metadata78"><rdf:RDF><cc:Work
       rdf:about=""><dc:format>image/svg+xml</dc:format><dc:type
         rdf:resource="http://purl.org/dc/dcmitype/StillImage" /><dc:title>Open Book</dc:title><dc:date>06/13/2013</dc:date><dc:creator><cc:Agent><dc:title>Christie L. Ward</dc:title></cc:Agent></dc:creator><dc:rights><cc:Agent><dc:title>Creative Commons Attribution-ShareAlike 3.0 Unported (CC BY-SA 3.0) license (http://creativecommons.org/licenses/by-sa/3.0/). No attribution required for heraldic or artistic use by members of the Society for Creative Anachronism, Inc.</dc:title></cc:Agent></dc:rights><dc:source>Microsoft Visio 2010</dc:source><cc:license rdf:resource="http://creativecommons.org/licenses/by-sa/3.0/" /></cc:Work><cc:License rdf:about="http://creativecommons.org/licenses/by-sa/3.0/"><cc:permits rdf:resource="http://creativecommons.org/ns#Reproduction" /><cc:permits rdf:resource="http://creativecommons.org/ns#Distribution" /><cc:requires rdf:resource="http://creativecommons.org/ns#Notice" /><cc:requires rdf:resource="http://creativecommons.org/ns#Attribution" /><cc:permits rdf:resource="http://creativecommons.org/ns#DerivativeWorks" /><cc:requires rdf:resource="http://creativecommons.org/ns#ShareAlike" /></cc:License></rdf:RDF></metadata><defs
   id="defs76" /><sodipodi:namedview
   pagecolor="#ffffff"
   bordercolor="#666666"
   borderopacity="1"
   objecttolerance="10"
   gridtolerance="10"
   guidetolerance="10"
   inkscape:pageopacity="0"
   inkscape:pageshadow="2"
   inkscape:window-width="640"
   inkscape:window-height="480"
   id="namedview74"
   showgrid="false"
   inkscape:zoom="1.3395839"
   inkscape:cx="125.5419"
   inkscape:cy="88.087051"
   inkscape:window-x="0"
   inkscape:window-y="0"
   inkscape:window-maximized="0"
   inkscape:current-layer="svg2" />
	<title
   id="title4">Open Book</title>
	<v:documentProperties
   v:langID="1033"
   v:viewMarkup="false" />

	<style
   type="text/css"
   id="style6">
	
		.st1 {fill:#ffffff;stroke:#000000;stroke-linecap:round;stroke-linejoin:round;stroke-width:2.16}
		.st2 {fill:#ffffff;stroke:#000000;stroke-linecap:round;stroke-linejoin:round;stroke-width:3.12}
		.st3 {fill:#ffffff;stroke:#000000;stroke-linecap:round;stroke-linejoin:round;stroke-width:0.72}
		.st4 {fill:none;fill-rule:evenodd;font-size:12px;overflow:visible;stroke-linecap:square;stroke-miterlimit:3}
	
	</style>

	<g
   v:mID="0"
   v:index="1"
   v:groupContext="foregroundPage"
   id="g8">
		<title
   id="title10">Page-1</title>
		<v:pageProperties
   v:drawingScale="1"
   v:pageScale="1"
   v:drawingUnits="19"
   v:shadowOffsetX="9"
   v:shadowOffsetY="-9" />
		<g
   id="group1-1"
   transform="translate(2.16,-2.16)"
   v:mID="1"
   v:groupContext="group">
			<title
   id="title13">Book</title>
			<g
   id="shape2-2"
   v:mID="2"
   v:groupContext="shape">
				<title
   id="title16">Sheet.2</title>
				<path
   d="M81.32 136.03 L81.32 140.94 L115.23 140.94 L115.23 136.03 L196.55 136.03 L196.55 22.25 L0 22.25 L0 136.03         L81.32 136.03 Z"
   class="st1"
   id="path18" />
			</g>
			<g
   id="shape3-4"
   v:mID="3"
   v:groupContext="shape"
   transform="translate(5.85625,-7.13905)">
				<title
   id="title21">Sheet.3</title>
				<path
   d="M92.47 24.8 L92.47 29.73 L92.47 125.17 L92.47 128.29 L92.47 132.76 L92.47 137.68 A65.799 57.5605 0 0 1 141.37         136.32 A80.0675 70.0425 -180 0 0 184.83 139.72 L184.83 35.16 A178.923 156.521 0 0 1 180.15 35.01 L180.15         30.23 A169.844 156.521 0 0 1 176.58 30.12 L176.58 25.77 A162.932 156.521 0 0 1 170.78 25.54 L170.78         22.65 A156.521 151.696 90 0 1 124.06 13.82 A48.4555 46.9618 -90 0 0 92.47 17.22 L92.47 20.34 L92.47         24.8 ZM8.25 30.12 A169.844 156.521 0 0 1 4.69 30.23 L4.69 35.01 A178.923 156.521 0 0 1 -0 35.16 L0 139.72         A80.0675 70.0425 -180 0 0 43.46 136.32 A65.799 57.5605 0 0 1 92.36 137.68 L92.36 132.76 L92.36 128.29         L92.36 125.17 L92.36 29.73 L92.36 24.8 L92.36 20.34 L92.36 17.22 A46.9618 48.4555 -180 0 0 60.78 13.82         A151.696 156.521 0 0 1 14.05 22.65 L14.05 25.54 A162.932 156.521 0 0 1 8.25 25.77 L8.25 30.12 Z"
   class="st2"
   id="path23" />
			</g>
			<g
   id="group4-6"
   transform="translate(5.85625,-7.13905)"
   v:mID="4"
   v:groupContext="group">
				<title
   id="title26">Sheet.4</title>
				<g
   id="group5-7"
   v:mID="5"
   v:groupContext="group">
					<title
   id="title29">Sheet.5</title>
					<g
   id="shape6-8"
   v:mID="6"
   v:groupContext="shape">
						<title
   id="title32">Sheet.6</title>
						<path
   d="M92.36 137.68 L92.36 29.73 A55.3908 48.4555 -180 0 0 55.11 26.33 A178.923 156.521 0 0 1 0 35.16           L0 139.72 A80.0675 70.0425 -180 0 0 43.46 136.32 A65.799 57.5605 0 0 1 92.36 137.68 Z"
   class="st3"
   id="path34" />
					</g>
					<g
   id="shape7-10"
   v:mID="7"
   v:groupContext="shape"
   transform="translate(4.68671,-4.4619)">
						<title
   id="title37">Sheet.7</title>
						<path
   d="M87.67 137.22 L87.67 29.26 A52.5801 48.4555 -180 0 0 52.31 25.87 A169.844 156.521 0 0 1 -0 34.69           L0 139.26 A90.5257 83.424 -179.14 0 0 49.19 135.86 A58.2903 53.7177 0.39 0 1 87.67 137.22 Z"
   class="st3"
   id="path39" />
					</g>
					<g
   id="shape8-12"
   v:mID="8"
   v:groupContext="shape"
   transform="translate(8.25452,-8.42287)">
						<title
   id="title42">Sheet.8</title>
						<path
   d="M84.11 136.72 L84.11 28.76 A50.4405 48.4555 -180 0 0 50.18 25.37 A162.932 156.521 0 0 1 -0 34.19           L0 138.75 A86.0882 82.6968 -176.64 0 0 46.85 136.7 A53.0771 50.9879 178.72 0 1 84.11 136.72           Z"
   class="st3"
   id="path44" />
					</g>
					<g
   id="shape9-14"
   v:mID="9"
   v:groupContext="shape"
   transform="translate(14.055,-12.0471)">
						<title
   id="title47">Sheet.9</title>
						<path
   d="M78.31 137.22 L78.31 29.26 A46.9618 48.4555 -180 0 0 46.72 25.87 A151.696 156.521 0 0 1 0 34.69           L0 139.26 A83.4295 80.8474 -92.24 0 0 43.93 135.86 A42.0073 40.7113 88.97 0 1 78.31 137.22 Z"
   class="st3"
   id="path49" />
					</g>
				</g>
				<g
   id="group10-16"
   transform="translate(184.834,0) scale(-1,1)"
   v:mID="10"
   v:groupContext="group">
					<title
   id="title52">Sheet.10</title>
					<g
   id="shape11-17"
   v:mID="11"
   v:groupContext="shape">
						<title
   id="title55">Sheet.11</title>
						<path
   d="M92.36 137.68 L92.36 29.73 A55.3908 48.4555 -180 0 0 55.11 26.33 A178.923 156.521 0 0 1 0 35.16           L0 139.72 A80.0675 70.0425 -180 0 0 43.46 136.32 A65.799 57.5605 0 0 1 92.36 137.68 Z"
   class="st3"
   id="path57" />
					</g>
					<g
   id="shape12-19"
   v:mID="12"
   v:groupContext="shape"
   transform="translate(4.68671,-4.4619)">
						<title
   id="title60">Sheet.12</title>
						<path
   d="M87.67 137.22 L87.67 29.26 A52.5801 48.4555 -180 0 0 52.31 25.87 A169.844 156.521 0 0 1 -0 34.69           L0 139.26 A90.5257 83.424 -179.14 0 0 49.19 135.86 A58.2903 53.7177 0.39 0 1 87.67 137.22 Z"
   class="st3"
   id="path62" />
					</g>
					<g
   id="shape13-21"
   v:mID="13"
   v:groupContext="shape"
   transform="translate(8.25452,-8.42287)">
						<title
   id="title65">Sheet.13</title>
						<path
   d="M84.11 136.72 L84.11 28.76 A50.4405 48.4555 -180 0 0 50.18 25.37 A162.932 156.521 0 0 1 -0 34.19           L0 138.75 A86.0882 82.6968 -176.64 0 0 46.85 136.7 A53.0771 50.9879 178.72 0 1 84.11 136.72           Z"
   class="st3"
   id="path67" />
					</g>
					<g
   id="shape14-23"
   v:mID="14"
   v:groupContext="shape"
   transform="translate(14.055,-12.0471)">
						<title
   id="title70">Sheet.14</title>
						<path
   d="M78.31 137.22 L78.31 29.26 A46.9618 48.4555 -180 0 0 46.72 25.87 A151.696 156.521 0 0 1 0 34.69           L0 139.26 A83.4295 80.8474 -92.24 0 0 43.93 135.86 A42.0073 40.7113 88.97 0 1 78.31 137.22 Z"
   class="st3"
   id="path72" />
					</g>
				</g>
			</g>
		</g>
	</g>
</svg>